<?xml version="1.0" encoding="utf-8"?>
<!-- Generator: Adobe Illustrator 16.0.0, SVG Export Plug-In . SVG Version: 6.00 Build 0)  -->
<!DOCTYPE svg PUBLIC "-//W3C//DTD SVG 1.1//EN" "http://www.w3.org/Graphics/SVG/1.1/DTD/svg11.dtd" [
	<!ENTITY ns_extend "http://ns.adobe.com/Extensibility/1.0/">
	<!ENTITY ns_ai "http://ns.adobe.com/AdobeIllustrator/10.0/">
	<!ENTITY ns_graphs "http://ns.adobe.com/Graphs/1.0/">
	<!ENTITY ns_vars "http://ns.adobe.com/Variables/1.0/">
	<!ENTITY ns_imrep "http://ns.adobe.com/ImageReplacement/1.0/">
	<!ENTITY ns_sfw "http://ns.adobe.com/SaveForWeb/1.0/">
	<!ENTITY ns_custom "http://ns.adobe.com/GenericCustomNamespace/1.0/">
	<!ENTITY ns_adobe_xpath "http://ns.adobe.com/XPath/1.0/">
]>
<svg version="1.1" id="Layer_1" xmlns:x="&ns_extend;" xmlns:i="&ns_ai;" xmlns:graph="&ns_graphs;"
	 xmlns="http://www.w3.org/2000/svg" xmlns:xlink="http://www.w3.org/1999/xlink" x="0px" y="0px" width="128px" height="128px"
	 viewBox="0 0 128 128" enable-background="new 0 0 128 128" xml:space="preserve">
<metadata>
	<sfw  xmlns="&ns_sfw;">
		<slices></slices>
		<sliceSourceBounds  width="123.095" height="94.347" y="100.326" x="539.405" bottomLeftOrigin="true"></sliceSourceBounds>
	</sfw>
</metadata>
<g>
	<path fill="#F0D50C" d="M127,95.943c0,0-18.75-3.08-28.656-3.963c-9.516-0.849-20.789-1.338-32.887-1.338
		c-12.095,0-23.37,0.489-32.882,1.338c-9.91,0.896-28.656,5.168-28.656,5.168v5.372c0,4.774,27.553,8.653,61.539,8.653
		c33.988,0,61.541-3.879,61.541-8.653L127,95.943z"/>
	<path fill="#F0D50C" d="M46.536,24.697C24.064,33.575,9.058,57.164,9.056,83.613v8.856c8.02-2.124,16.196-3.438,24.428-3.928
		c-0.056-1.699-0.084-3.41-0.085-5.135C33.407,60.166,38.466,39.254,46.536,24.697z"/>
	<path fill="#FFF04D" d="M121.857,83.613c0.02-14.513-4.535-28.578-12.875-39.764c3.617,12.802,5.418,26.148,5.34,39.564
		c0,2.44-0.057,4.854-0.17,7.238c2.566,0.439,5.109,1.036,7.615,1.79L121.857,83.613z"/>
	<path fill="#FFEA00" d="M121.857,83.613c0.02-14.513-4.535-28.578-12.875-39.764c3.617,12.802,5.418,26.148,5.34,39.564
		c0,2.44-0.057,4.854-0.17,7.238c2.566,0.439,5.109,1.036,7.615,1.79L121.857,83.613z"/>
	<path fill="#FFF04D" d="M108.982,43.846C93.873,23.538,68.914,15.885,46.539,24.697c-8.075,14.558-13.132,35.469-13.132,58.712
		c0,1.726,0.029,3.438,0.086,5.136c8.397-0.718,18.119-1.163,28.53-1.244c0,0,2.366,0,3.44,0
		c16.285-0.217,32.561,0.908,48.695,3.363c0.111-2.387,0.166-4.801,0.17-7.24C114.406,70.005,112.602,56.652,108.982,43.846
		L108.982,43.846z"/>
	<g transform="translate(81.394668, 0.000000)">
		<path fill="#FFF04D" d="M6.752,47.982L3.176,23.214c-0.252-1.822-1.432-3.32-3.025-3.846c-10.414-3.388-21.488-3.388-31.902,0
			c-1.593,0.528-2.77,2.025-3.023,3.846l-3.577,24.769"/>
	</g>
	<path fill="#FFF04D" d="M65.463,86.776c-1.076,0-2.146,0-3.205,0h-0.119h-0.118c-32.388,0.25-58.1,4.021-58.1,8.639v6.69
		c-0.052,0.392,0.023,0.791,0.212,1.129c1.645-1.371,3.536-2.333,5.544-2.825c5.116-1.379,10.317-2.345,15.56-2.888
		c2.978-0.362,5.952,0.714,8.164,2.955c4.049,4.109,9.34,6.389,14.831,6.388h34.452c5.49,0,10.781-2.278,14.83-6.388l0,0
		c2.211-2.243,5.188-3.321,8.168-2.958c5.24,0.543,10.441,1.509,15.557,2.889c1.902,0.405,3.697,1.277,5.26,2.551
		c0.088,0.099,0.189,0.186,0.27,0.276c0.189-0.338,0.266-0.741,0.213-1.135v-6.69C127,90.648,99.447,86.776,65.463,86.776z"/>
	<polygon fill="#6E6F70" points="78.426,66.907 65.446,75.764 65.446,87.268 	"/>
	<polygon fill="#0A0A0A" points="65.461,87.268 65.461,75.764 52.481,66.907 	"/>
	<polygon fill="#0A0A0A" points="52.481,61.652 52.481,61.652 65.461,69.973 65.461,38.379 	"/>
	<polygon fill="#6E6F70" points="78.426,61.652 65.446,38.376 65.446,38.376 65.446,53.33 65.446,53.33 65.446,69.97 78.426,61.649 
		78.426,61.649 	"/>
</g>
</svg>
